<mxfile host="app.diagrams.net" agent="Mozilla/5.0 (Windows NT 10.0; Win64; x64) AppleWebKit/537.36 (KHTML, like Gecko) Chrome/117.0.0.0 Safari/537.36" version="24.7.17">
  <diagram name="Страница — 1" id="qwmdR4soJWc_301-uJRk">
    <mxGraphModel dx="3873" dy="1653" grid="1" gridSize="10" guides="1" tooltips="1" connect="1" arrows="1" fold="1" page="0" pageScale="1" pageWidth="827" pageHeight="1169" math="0" shadow="0">
      <root>
        <mxCell id="0" />
        <mxCell id="1" parent="0" />
        <mxCell id="wYAOK6lgLk5Qr3I9pqYo-92" value="" style="rounded=0;whiteSpace=wrap;html=1;" vertex="1" parent="1">
          <mxGeometry x="1200" y="40" width="390" height="520" as="geometry" />
        </mxCell>
        <mxCell id="x74_SV1x-cFVezhLaawV-66" value="" style="rounded=0;whiteSpace=wrap;html=1;" parent="1" vertex="1">
          <mxGeometry x="600" y="40" width="390" height="520" as="geometry" />
        </mxCell>
        <mxCell id="wYAOK6lgLk5Qr3I9pqYo-32" value="" style="rounded=1;whiteSpace=wrap;html=1;fillColor=#f8cecc;noLabel=1;labelBackgroundColor=#ec7474;strokeColor=#b85450;" vertex="1" parent="1">
          <mxGeometry x="871.5" y="499.5" width="90" height="35" as="geometry" />
        </mxCell>
        <mxCell id="wYAOK6lgLk5Qr3I9pqYo-37" style="edgeStyle=orthogonalEdgeStyle;rounded=0;orthogonalLoop=1;jettySize=auto;html=1;" edge="1" parent="1">
          <mxGeometry relative="1" as="geometry">
            <mxPoint x="916.5" y="630" as="targetPoint" />
            <mxPoint x="916.4705882352941" y="542" as="sourcePoint" />
          </mxGeometry>
        </mxCell>
        <mxCell id="x74_SV1x-cFVezhLaawV-61" value="" style="rounded=0;whiteSpace=wrap;html=1;labelBackgroundColor=#f06a6a;" parent="1" vertex="1">
          <mxGeometry x="40" y="40" width="390" height="520" as="geometry" />
        </mxCell>
        <mxCell id="x74_SV1x-cFVezhLaawV-68" value="&lt;b&gt;Поиск&lt;/b&gt;" style="rounded=1;whiteSpace=wrap;html=1;" parent="1" vertex="1">
          <mxGeometry x="70" y="60" width="290" height="30" as="geometry" />
        </mxCell>
        <mxCell id="x74_SV1x-cFVezhLaawV-71" value="" style="shape=image;html=1;verticalAlign=top;verticalLabelPosition=bottom;labelBackgroundColor=#ffffff;imageAspect=0;aspect=fixed;image=https://cdn4.iconfinder.com/data/icons/evil-icons-user-interface/64/magnifier-128.png" parent="1" vertex="1">
          <mxGeometry x="330" y="60" width="30" height="30" as="geometry" />
        </mxCell>
        <mxCell id="9MEbB68s_isT1Yj_m3ho-9" value="" style="rounded=1;whiteSpace=wrap;html=1;fillColor=#f8cecc;strokeColor=#b85450;" parent="1" vertex="1">
          <mxGeometry x="55" y="507" width="90" height="35" as="geometry" />
        </mxCell>
        <mxCell id="x74_SV1x-cFVezhLaawV-114" value="&lt;b&gt;&lt;font style=&quot;font-size: 9px;&quot;&gt;Главная&lt;/font&gt;&lt;/b&gt;" style="text;html=1;align=center;verticalAlign=middle;resizable=0;points=[];autosize=1;strokeColor=none;fillColor=none;labelBackgroundColor=#ec6f6f;" parent="1" vertex="1">
          <mxGeometry x="80" y="507.25" width="60" height="30" as="geometry" />
        </mxCell>
        <mxCell id="CNAPJQVcdsXgHTbzYZQy-10" value="" style="rounded=1;whiteSpace=wrap;html=1;fillColor=#E6E6E6;" parent="1" vertex="1">
          <mxGeometry x="305" y="504.5" width="90" height="35" as="geometry" />
        </mxCell>
        <mxCell id="CNAPJQVcdsXgHTbzYZQy-12" value="&lt;b&gt;&lt;font style=&quot;font-size: 10px;&quot;&gt;История&lt;/font&gt;&lt;/b&gt;" style="text;html=1;align=center;verticalAlign=middle;resizable=0;points=[];autosize=1;strokeColor=none;fillColor=none;" parent="1" vertex="1">
          <mxGeometry x="325" y="507.25" width="70" height="30" as="geometry" />
        </mxCell>
        <mxCell id="CNAPJQVcdsXgHTbzYZQy-24" value="" style="rounded=1;whiteSpace=wrap;html=1;fillColor=#30B346;strokeColor=#82b366;" parent="1" vertex="1">
          <mxGeometry x="915" y="160" width="35" height="35" as="geometry" />
        </mxCell>
        <mxCell id="CNAPJQVcdsXgHTbzYZQy-28" value="&lt;span style=&quot;font-size: 19px; font-weight: 700; background-color: rgb(255, 255, 255);&quot;&gt;User Story&lt;/span&gt;&lt;div style=&quot;font-size: 19px;&quot;&gt;&lt;br style=&quot;padding: 0px; margin: 0px; font-size: 19px; font-weight: 700; background-color: rgb(255, 255, 255);&quot;&gt;&lt;span style=&quot;font-size: 19px; font-weight: 700; background-color: rgb(255, 255, 255);&quot;&gt;Как пользователь приложения онлайн-банка,&amp;nbsp;&lt;/span&gt;&lt;div style=&quot;font-size: 19px;&quot;&gt;&lt;span style=&quot;font-size: 19px; font-weight: 700; background-color: rgb(255, 255, 255);&quot;&gt;я хочу иметь возможность скачивать электронные чеки по операциям,&amp;nbsp;&lt;/span&gt;&lt;div style=&quot;font-size: 19px;&quot;&gt;&lt;span style=&quot;font-size: 19px; font-weight: 700; background-color: rgb(255, 255, 255);&quot;&gt;чтобы контролировать свои финансы и получать документы по проведенным операциям.&lt;/span&gt;&lt;br style=&quot;font-size: 19px;&quot;&gt;&lt;/div&gt;&lt;/div&gt;&lt;/div&gt;" style="text;html=1;align=center;verticalAlign=middle;resizable=0;points=[];autosize=1;strokeColor=#36393d;fillColor=#ffcc99;fontSize=19;" parent="1" vertex="1">
          <mxGeometry x="360" y="-210" width="890" height="130" as="geometry" />
        </mxCell>
        <mxCell id="wYAOK6lgLk5Qr3I9pqYo-34" style="edgeStyle=orthogonalEdgeStyle;rounded=0;orthogonalLoop=1;jettySize=auto;html=1;exitX=0.5;exitY=1;exitDx=0;exitDy=0;" edge="1" parent="1" source="CNAPJQVcdsXgHTbzYZQy-87">
          <mxGeometry relative="1" as="geometry">
            <mxPoint x="350" y="640" as="targetPoint" />
          </mxGeometry>
        </mxCell>
        <mxCell id="CNAPJQVcdsXgHTbzYZQy-87" value="" style="rounded=1;whiteSpace=wrap;html=1;fillColor=none;strokeWidth=2;strokeColor=#FF0000;labelBorderColor=#FF9999;labelBackgroundColor=default;" parent="1" vertex="1">
          <mxGeometry x="300" y="497.25" width="100" height="50" as="geometry" />
        </mxCell>
        <mxCell id="CNAPJQVcdsXgHTbzYZQy-95" value="" style="sketch=0;pointerEvents=1;shadow=0;dashed=0;html=1;strokeColor=none;fillColor=#666666;labelPosition=center;verticalLabelPosition=bottom;verticalAlign=top;outlineConnect=0;align=center;shape=mxgraph.office.concepts.home;" parent="1" vertex="1">
          <mxGeometry x="65" y="514.5" width="20" height="20" as="geometry" />
        </mxCell>
        <mxCell id="ATV0B9zLNPPL4cUdhzJt-3" value="" style="html=1;verticalLabelPosition=bottom;align=center;labelBackgroundColor=#ffffff;verticalAlign=top;strokeWidth=2;strokeColor=#0080F0;shadow=0;dashed=0;shape=mxgraph.ios7.icons.user;" parent="1" vertex="1">
          <mxGeometry x="380" y="60" width="30" height="30" as="geometry" />
        </mxCell>
        <mxCell id="ATV0B9zLNPPL4cUdhzJt-4" value="" style="html=1;verticalLabelPosition=bottom;align=center;labelBackgroundColor=#ffffff;verticalAlign=top;strokeWidth=2;strokeColor=#0080F0;shadow=0;dashed=0;shape=mxgraph.ios7.icons.user;" parent="1" vertex="1">
          <mxGeometry x="940" y="53.75" width="30" height="30" as="geometry" />
        </mxCell>
        <mxCell id="CNAPJQVcdsXgHTbzYZQy-90" value="&lt;span style=&quot;font-size: 14px;&quot;&gt;Кнопка должна быть подсвечена&lt;br&gt;красным&lt;/span&gt;" style="text;html=1;align=center;verticalAlign=middle;resizable=0;points=[];autosize=1;strokeColor=none;fillColor=none;" parent="1" vertex="1">
          <mxGeometry x="807.5" y="640" width="240" height="50" as="geometry" />
        </mxCell>
        <mxCell id="wYAOK6lgLk5Qr3I9pqYo-2" value="" style="sketch=0;pointerEvents=1;shadow=0;dashed=0;html=1;strokeColor=none;fillColor=#505050;labelPosition=center;verticalLabelPosition=bottom;verticalAlign=top;outlineConnect=0;align=center;shape=mxgraph.office.concepts.clock;" vertex="1" parent="1">
          <mxGeometry x="310" y="512" width="20" height="20.5" as="geometry" />
        </mxCell>
        <mxCell id="wYAOK6lgLk5Qr3I9pqYo-4" value="" style="rounded=1;whiteSpace=wrap;html=1;fillColor=#E6E6E6;" vertex="1" parent="1">
          <mxGeometry x="180" y="507.25" width="90" height="35" as="geometry" />
        </mxCell>
        <mxCell id="wYAOK6lgLk5Qr3I9pqYo-177" style="edgeStyle=orthogonalEdgeStyle;rounded=0;orthogonalLoop=1;jettySize=auto;html=1;" edge="1" parent="1" source="wYAOK6lgLk5Qr3I9pqYo-5">
          <mxGeometry relative="1" as="geometry">
            <mxPoint x="235" y="600" as="targetPoint" />
          </mxGeometry>
        </mxCell>
        <mxCell id="wYAOK6lgLk5Qr3I9pqYo-179" style="edgeStyle=orthogonalEdgeStyle;rounded=0;orthogonalLoop=1;jettySize=auto;html=1;entryX=1.007;entryY=0.912;entryDx=0;entryDy=0;entryPerimeter=0;" edge="1" parent="1" source="wYAOK6lgLk5Qr3I9pqYo-5" target="wYAOK6lgLk5Qr3I9pqYo-180">
          <mxGeometry relative="1" as="geometry">
            <mxPoint x="-110" y="524" as="targetPoint" />
          </mxGeometry>
        </mxCell>
        <mxCell id="wYAOK6lgLk5Qr3I9pqYo-5" value="&lt;font size=&quot;1&quot;&gt;&lt;b&gt;Чеки&lt;/b&gt;&lt;/font&gt;" style="text;html=1;align=center;verticalAlign=middle;resizable=0;points=[];autosize=1;strokeColor=none;fillColor=none;" vertex="1" parent="1">
          <mxGeometry x="210" y="507.25" width="50" height="30" as="geometry" />
        </mxCell>
        <mxCell id="wYAOK6lgLk5Qr3I9pqYo-6" value="" style="shape=image;html=1;verticalAlign=top;verticalLabelPosition=bottom;labelBackgroundColor=#ffffff;imageAspect=0;aspect=fixed;image=https://cdn0.iconfinder.com/data/icons/business-startup-10/50/29-128.png" vertex="1" parent="1">
          <mxGeometry x="190" y="513.5" width="17.5" height="17.5" as="geometry" />
        </mxCell>
        <mxCell id="wYAOK6lgLk5Qr3I9pqYo-8" value="&lt;b&gt;Поиск&lt;/b&gt;" style="rounded=1;whiteSpace=wrap;html=1;" vertex="1" parent="1">
          <mxGeometry x="630" y="53.75" width="290" height="30" as="geometry" />
        </mxCell>
        <mxCell id="wYAOK6lgLk5Qr3I9pqYo-9" value="" style="shape=image;html=1;verticalAlign=top;verticalLabelPosition=bottom;labelBackgroundColor=#ffffff;imageAspect=0;aspect=fixed;image=https://cdn4.iconfinder.com/data/icons/evil-icons-user-interface/64/magnifier-128.png" vertex="1" parent="1">
          <mxGeometry x="885" y="53.75" width="30" height="30" as="geometry" />
        </mxCell>
        <mxCell id="wYAOK6lgLk5Qr3I9pqYo-11" value="&lt;h1 style=&quot;margin-top: 0px;&quot;&gt;&lt;font style=&quot;font-size: 15px;&quot;&gt;12 октября, 2023&lt;/font&gt;&lt;/h1&gt;" style="text;html=1;whiteSpace=wrap;overflow=hidden;rounded=0;" vertex="1" parent="1">
          <mxGeometry x="621.5" y="117" width="270" height="50" as="geometry" />
        </mxCell>
        <mxCell id="wYAOK6lgLk5Qr3I9pqYo-15" value="&lt;h1 style=&quot;margin-top: 0px;&quot;&gt;&lt;font style=&quot;font-size: 15px;&quot;&gt;8 октября, 2023&lt;/font&gt;&lt;/h1&gt;" style="text;html=1;whiteSpace=wrap;overflow=hidden;rounded=0;" vertex="1" parent="1">
          <mxGeometry x="622.5" y="265" width="270" height="50" as="geometry" />
        </mxCell>
        <mxCell id="wYAOK6lgLk5Qr3I9pqYo-16" value="&lt;h1 style=&quot;margin-top: 0px;&quot;&gt;&lt;font style=&quot;font-size: 15px;&quot;&gt;7 октября, 2023&lt;/font&gt;&lt;/h1&gt;" style="text;html=1;whiteSpace=wrap;overflow=hidden;rounded=0;" vertex="1" parent="1">
          <mxGeometry x="622.5" y="362.1" width="270" height="50" as="geometry" />
        </mxCell>
        <mxCell id="wYAOK6lgLk5Qr3I9pqYo-53" style="edgeStyle=orthogonalEdgeStyle;rounded=0;orthogonalLoop=1;jettySize=auto;html=1;exitX=1;exitY=0.5;exitDx=0;exitDy=0;" edge="1" parent="1" source="wYAOK6lgLk5Qr3I9pqYo-18">
          <mxGeometry relative="1" as="geometry">
            <mxPoint x="1100.0000000000002" y="570" as="targetPoint" />
          </mxGeometry>
        </mxCell>
        <mxCell id="wYAOK6lgLk5Qr3I9pqYo-18" value="" style="rounded=1;whiteSpace=wrap;html=1;fillColor=#E6E6E6;" vertex="1" parent="1">
          <mxGeometry x="915" y="412.1" width="35" height="35" as="geometry" />
        </mxCell>
        <mxCell id="wYAOK6lgLk5Qr3I9pqYo-19" value="" style="rounded=1;whiteSpace=wrap;html=1;fillColor=#E6E6E6;" vertex="1" parent="1">
          <mxGeometry x="915" y="315" width="35" height="35" as="geometry" />
        </mxCell>
        <mxCell id="wYAOK6lgLk5Qr3I9pqYo-57" style="edgeStyle=orthogonalEdgeStyle;rounded=0;orthogonalLoop=1;jettySize=auto;html=1;exitX=1;exitY=0.5;exitDx=0;exitDy=0;" edge="1" parent="1" source="wYAOK6lgLk5Qr3I9pqYo-21" target="wYAOK6lgLk5Qr3I9pqYo-124">
          <mxGeometry relative="1" as="geometry">
            <mxPoint x="1100" y="340" as="targetPoint" />
          </mxGeometry>
        </mxCell>
        <mxCell id="wYAOK6lgLk5Qr3I9pqYo-21" value="" style="rounded=1;whiteSpace=wrap;html=1;fillColor=#E6E6E6;strokeColor=#ee1717;strokeWidth=2;" vertex="1" parent="1">
          <mxGeometry x="915" y="215" width="35" height="35" as="geometry" />
        </mxCell>
        <mxCell id="wYAOK6lgLk5Qr3I9pqYo-22" value="" style="rounded=1;whiteSpace=wrap;html=1;fillColor=#E6E6E6;" vertex="1" parent="1">
          <mxGeometry x="621.5" y="502" width="90" height="35" as="geometry" />
        </mxCell>
        <mxCell id="wYAOK6lgLk5Qr3I9pqYo-23" value="&lt;b&gt;&lt;font style=&quot;font-size: 9px;&quot;&gt;Главная&lt;/font&gt;&lt;/b&gt;" style="text;html=1;align=center;verticalAlign=middle;resizable=0;points=[];autosize=1;strokeColor=none;fillColor=none;" vertex="1" parent="1">
          <mxGeometry x="646.5" y="502.25" width="60" height="30" as="geometry" />
        </mxCell>
        <mxCell id="wYAOK6lgLk5Qr3I9pqYo-25" value="" style="sketch=0;pointerEvents=1;shadow=0;dashed=0;html=1;strokeColor=none;fillColor=#666666;labelPosition=center;verticalLabelPosition=bottom;verticalAlign=top;outlineConnect=0;align=center;shape=mxgraph.office.concepts.home;" vertex="1" parent="1">
          <mxGeometry x="631.5" y="509.5" width="20" height="20" as="geometry" />
        </mxCell>
        <mxCell id="wYAOK6lgLk5Qr3I9pqYo-26" value="" style="sketch=0;pointerEvents=1;shadow=0;dashed=0;html=1;strokeColor=none;fillColor=#505050;labelPosition=center;verticalLabelPosition=bottom;verticalAlign=top;outlineConnect=0;align=center;shape=mxgraph.office.concepts.clock;labelBackgroundColor=#6d3131;" vertex="1" parent="1">
          <mxGeometry x="876.5" y="507" width="20" height="20.5" as="geometry" />
        </mxCell>
        <mxCell id="wYAOK6lgLk5Qr3I9pqYo-27" value="" style="rounded=1;whiteSpace=wrap;html=1;fillColor=#E6E6E6;" vertex="1" parent="1">
          <mxGeometry x="746.5" y="502.25" width="90" height="35" as="geometry" />
        </mxCell>
        <mxCell id="wYAOK6lgLk5Qr3I9pqYo-28" value="&lt;font size=&quot;1&quot;&gt;&lt;b&gt;Чеки&lt;/b&gt;&lt;/font&gt;" style="text;html=1;align=center;verticalAlign=middle;resizable=0;points=[];autosize=1;strokeColor=none;fillColor=none;" vertex="1" parent="1">
          <mxGeometry x="776.5" y="502.25" width="50" height="30" as="geometry" />
        </mxCell>
        <mxCell id="wYAOK6lgLk5Qr3I9pqYo-29" value="" style="shape=image;html=1;verticalAlign=top;verticalLabelPosition=bottom;labelBackgroundColor=#ffffff;imageAspect=0;aspect=fixed;image=https://cdn0.iconfinder.com/data/icons/business-startup-10/50/29-128.png" vertex="1" parent="1">
          <mxGeometry x="756.5" y="508.5" width="17.5" height="17.5" as="geometry" />
        </mxCell>
        <mxCell id="wYAOK6lgLk5Qr3I9pqYo-30" value="&lt;b&gt;&lt;font style=&quot;font-size: 10px;&quot;&gt;История&lt;/font&gt;&lt;/b&gt;" style="text;html=1;align=center;verticalAlign=middle;resizable=0;points=[];autosize=1;strokeColor=none;fillColor=none;labelBackgroundColor=#c31818;labelBorderColor=#FF3333;" vertex="1" parent="1">
          <mxGeometry x="891.5" y="502.25" width="70" height="30" as="geometry" />
        </mxCell>
        <mxCell id="wYAOK6lgLk5Qr3I9pqYo-35" value="&lt;div&gt;&lt;span style=&quot;font-size: 14px;&quot;&gt;Тап по кнопке - переход на экран истории транзакций&lt;/span&gt;&lt;/div&gt;" style="text;html=1;align=center;verticalAlign=middle;resizable=0;points=[];autosize=1;strokeColor=none;fillColor=none;" vertex="1" parent="1">
          <mxGeometry x="165" y="640" width="370" height="30" as="geometry" />
        </mxCell>
        <mxCell id="wYAOK6lgLk5Qr3I9pqYo-58" style="edgeStyle=orthogonalEdgeStyle;rounded=0;orthogonalLoop=1;jettySize=auto;html=1;" edge="1" parent="1" source="wYAOK6lgLk5Qr3I9pqYo-38">
          <mxGeometry relative="1" as="geometry">
            <mxPoint x="1050" y="110" as="targetPoint" />
            <Array as="points">
              <mxPoint x="1050" y="177" />
            </Array>
          </mxGeometry>
        </mxCell>
        <mxCell id="wYAOK6lgLk5Qr3I9pqYo-38" value="" style="sketch=0;pointerEvents=1;shadow=0;dashed=0;html=1;strokeColor=#FFFFFF;fillColor=#d5e8d4;labelPosition=center;verticalLabelPosition=bottom;verticalAlign=top;outlineConnect=0;align=center;shape=mxgraph.office.concepts.download;" vertex="1" parent="1">
          <mxGeometry x="922" y="166" width="21" height="23" as="geometry" />
        </mxCell>
        <mxCell id="wYAOK6lgLk5Qr3I9pqYo-39" value="" style="sketch=0;pointerEvents=1;shadow=0;dashed=0;html=1;strokeColor=default;fillColor=#505050;labelPosition=center;verticalLabelPosition=bottom;verticalAlign=top;outlineConnect=0;align=center;shape=mxgraph.office.concepts.download;direction=east;" vertex="1" parent="1">
          <mxGeometry x="922" y="221" width="21" height="23" as="geometry" />
        </mxCell>
        <mxCell id="wYAOK6lgLk5Qr3I9pqYo-55" style="edgeStyle=orthogonalEdgeStyle;rounded=0;orthogonalLoop=1;jettySize=auto;html=1;" edge="1" parent="1" source="wYAOK6lgLk5Qr3I9pqYo-40">
          <mxGeometry relative="1" as="geometry">
            <mxPoint x="1100.0000000000002" y="430" as="targetPoint" />
          </mxGeometry>
        </mxCell>
        <mxCell id="wYAOK6lgLk5Qr3I9pqYo-40" value="" style="sketch=0;pointerEvents=1;shadow=0;dashed=0;html=1;strokeColor=none;fillColor=#505050;labelPosition=center;verticalLabelPosition=bottom;verticalAlign=top;outlineConnect=0;align=center;shape=mxgraph.office.concepts.download;" vertex="1" parent="1">
          <mxGeometry x="922" y="321" width="21" height="23" as="geometry" />
        </mxCell>
        <mxCell id="wYAOK6lgLk5Qr3I9pqYo-41" value="" style="sketch=0;pointerEvents=1;shadow=0;dashed=0;html=1;strokeColor=none;fillColor=#505050;labelPosition=center;verticalLabelPosition=bottom;verticalAlign=top;outlineConnect=0;align=center;shape=mxgraph.office.concepts.download;" vertex="1" parent="1">
          <mxGeometry x="922" y="420" width="21" height="23" as="geometry" />
        </mxCell>
        <mxCell id="wYAOK6lgLk5Qr3I9pqYo-42" value="Перевод на карту" style="text;html=1;align=center;verticalAlign=middle;whiteSpace=wrap;rounded=0;" vertex="1" parent="1">
          <mxGeometry x="633" y="162.5" width="113.5" height="30" as="geometry" />
        </mxCell>
        <mxCell id="wYAOK6lgLk5Qr3I9pqYo-45" value="Продукты &quot;Ромашка&quot;" style="text;html=1;align=center;verticalAlign=middle;whiteSpace=wrap;rounded=0;" vertex="1" parent="1">
          <mxGeometry x="636.5" y="317.5" width="123.5" height="30" as="geometry" />
        </mxCell>
        <mxCell id="wYAOK6lgLk5Qr3I9pqYo-46" value="Поступление заработной платы" style="text;html=1;align=center;verticalAlign=middle;whiteSpace=wrap;rounded=0;" vertex="1" parent="1">
          <mxGeometry x="606.5" y="410" width="203.5" height="30" as="geometry" />
        </mxCell>
        <mxCell id="wYAOK6lgLk5Qr3I9pqYo-47" value="- 100 руб.&amp;nbsp;" style="text;html=1;align=center;verticalAlign=middle;whiteSpace=wrap;rounded=0;" vertex="1" parent="1">
          <mxGeometry x="811.5" y="162.5" width="60" height="30" as="geometry" />
        </mxCell>
        <mxCell id="wYAOK6lgLk5Qr3I9pqYo-49" value="Перевод на карту" style="text;html=1;align=center;verticalAlign=middle;whiteSpace=wrap;rounded=0;" vertex="1" parent="1">
          <mxGeometry x="633" y="214" width="113.5" height="30" as="geometry" />
        </mxCell>
        <mxCell id="wYAOK6lgLk5Qr3I9pqYo-50" value="- 200 руб.&amp;nbsp;" style="text;html=1;align=center;verticalAlign=middle;whiteSpace=wrap;rounded=0;" vertex="1" parent="1">
          <mxGeometry x="811.5" y="214" width="60" height="30" as="geometry" />
        </mxCell>
        <mxCell id="wYAOK6lgLk5Qr3I9pqYo-51" value="- 500 руб.&amp;nbsp;" style="text;html=1;align=center;verticalAlign=middle;whiteSpace=wrap;rounded=0;" vertex="1" parent="1">
          <mxGeometry x="811.5" y="314" width="60" height="30" as="geometry" />
        </mxCell>
        <mxCell id="wYAOK6lgLk5Qr3I9pqYo-52" value="+ 5&amp;nbsp;&lt;span style=&quot;background-color: initial;&quot;&gt;000 руб.&amp;nbsp;&lt;/span&gt;" style="text;html=1;align=center;verticalAlign=middle;whiteSpace=wrap;rounded=0;" vertex="1" parent="1">
          <mxGeometry x="810" y="412.1" width="80" height="30" as="geometry" />
        </mxCell>
        <mxCell id="wYAOK6lgLk5Qr3I9pqYo-54" value="&lt;span style=&quot;font-size: 14px;&quot;&gt;Рядом с каж&lt;/span&gt;&lt;span style=&quot;font-size: 14px; background-color: initial;&quot;&gt;дой транзакцией&amp;nbsp;&lt;/span&gt;&lt;div&gt;&lt;span style=&quot;font-size: 14px; background-color: initial;&quot;&gt;кнопка &quot;скачать чек&quot;&lt;/span&gt;&lt;/div&gt;" style="text;html=1;align=center;verticalAlign=middle;resizable=0;points=[];autosize=1;strokeColor=none;fillColor=none;" vertex="1" parent="1">
          <mxGeometry x="980" y="580" width="220" height="50" as="geometry" />
        </mxCell>
        <mxCell id="wYAOK6lgLk5Qr3I9pqYo-59" value="&lt;span style=&quot;font-size: 14px;&quot;&gt;зеленая - чек скачен&lt;/span&gt;" style="text;html=1;align=center;verticalAlign=middle;resizable=0;points=[];autosize=1;strokeColor=none;fillColor=none;" vertex="1" parent="1">
          <mxGeometry x="990" y="77" width="160" height="30" as="geometry" />
        </mxCell>
        <mxCell id="wYAOK6lgLk5Qr3I9pqYo-93" value="" style="rounded=1;whiteSpace=wrap;html=1;fillColor=#f8cecc;noLabel=1;labelBackgroundColor=#ec7474;strokeColor=#b85450;" vertex="1" parent="1">
          <mxGeometry x="1471.5" y="499.5" width="90" height="35" as="geometry" />
        </mxCell>
        <mxCell id="wYAOK6lgLk5Qr3I9pqYo-94" value="" style="rounded=1;whiteSpace=wrap;html=1;fillColor=#30B346;strokeColor=#82b366;" vertex="1" parent="1">
          <mxGeometry x="1515" y="160" width="35" height="35" as="geometry" />
        </mxCell>
        <mxCell id="wYAOK6lgLk5Qr3I9pqYo-95" value="" style="html=1;verticalLabelPosition=bottom;align=center;labelBackgroundColor=#ffffff;verticalAlign=top;strokeWidth=2;strokeColor=#0080F0;shadow=0;dashed=0;shape=mxgraph.ios7.icons.user;" vertex="1" parent="1">
          <mxGeometry x="1540" y="53.75" width="30" height="30" as="geometry" />
        </mxCell>
        <mxCell id="wYAOK6lgLk5Qr3I9pqYo-96" value="&lt;b&gt;Поиск&lt;/b&gt;" style="rounded=1;whiteSpace=wrap;html=1;" vertex="1" parent="1">
          <mxGeometry x="1230" y="53.75" width="290" height="30" as="geometry" />
        </mxCell>
        <mxCell id="wYAOK6lgLk5Qr3I9pqYo-97" value="" style="shape=image;html=1;verticalAlign=top;verticalLabelPosition=bottom;labelBackgroundColor=#ffffff;imageAspect=0;aspect=fixed;image=https://cdn4.iconfinder.com/data/icons/evil-icons-user-interface/64/magnifier-128.png" vertex="1" parent="1">
          <mxGeometry x="1485" y="53.75" width="30" height="30" as="geometry" />
        </mxCell>
        <mxCell id="wYAOK6lgLk5Qr3I9pqYo-98" value="&lt;h1 style=&quot;margin-top: 0px;&quot;&gt;&lt;font style=&quot;font-size: 15px;&quot;&gt;12 октября, 2023&lt;/font&gt;&lt;/h1&gt;" style="text;html=1;whiteSpace=wrap;overflow=hidden;rounded=0;" vertex="1" parent="1">
          <mxGeometry x="1221.5" y="117" width="270" height="50" as="geometry" />
        </mxCell>
        <mxCell id="wYAOK6lgLk5Qr3I9pqYo-99" value="&lt;h1 style=&quot;margin-top: 0px;&quot;&gt;&lt;font style=&quot;font-size: 15px;&quot;&gt;8 октября, 2023&lt;/font&gt;&lt;/h1&gt;" style="text;html=1;whiteSpace=wrap;overflow=hidden;rounded=0;" vertex="1" parent="1">
          <mxGeometry x="1222.5" y="265" width="270" height="50" as="geometry" />
        </mxCell>
        <mxCell id="wYAOK6lgLk5Qr3I9pqYo-100" value="&lt;h1 style=&quot;margin-top: 0px;&quot;&gt;&lt;font style=&quot;font-size: 15px;&quot;&gt;7 октября, 2023&lt;/font&gt;&lt;/h1&gt;" style="text;html=1;whiteSpace=wrap;overflow=hidden;rounded=0;" vertex="1" parent="1">
          <mxGeometry x="1222.5" y="362.1" width="270" height="50" as="geometry" />
        </mxCell>
        <mxCell id="wYAOK6lgLk5Qr3I9pqYo-101" value="" style="rounded=1;whiteSpace=wrap;html=1;fillColor=#E6E6E6;" vertex="1" parent="1">
          <mxGeometry x="1515" y="412.1" width="35" height="35" as="geometry" />
        </mxCell>
        <mxCell id="wYAOK6lgLk5Qr3I9pqYo-102" value="" style="rounded=1;whiteSpace=wrap;html=1;fillColor=#E6E6E6;" vertex="1" parent="1">
          <mxGeometry x="1515" y="315" width="35" height="35" as="geometry" />
        </mxCell>
        <mxCell id="wYAOK6lgLk5Qr3I9pqYo-103" value="" style="rounded=1;whiteSpace=wrap;html=1;fillColor=#E6E6E6;" vertex="1" parent="1">
          <mxGeometry x="1515" y="215" width="35" height="35" as="geometry" />
        </mxCell>
        <mxCell id="wYAOK6lgLk5Qr3I9pqYo-104" value="" style="rounded=1;whiteSpace=wrap;html=1;fillColor=#E6E6E6;" vertex="1" parent="1">
          <mxGeometry x="1221.5" y="502" width="90" height="35" as="geometry" />
        </mxCell>
        <mxCell id="wYAOK6lgLk5Qr3I9pqYo-105" value="&lt;b&gt;&lt;font style=&quot;font-size: 9px;&quot;&gt;Главная&lt;/font&gt;&lt;/b&gt;" style="text;html=1;align=center;verticalAlign=middle;resizable=0;points=[];autosize=1;strokeColor=none;fillColor=none;" vertex="1" parent="1">
          <mxGeometry x="1246.5" y="502.25" width="60" height="30" as="geometry" />
        </mxCell>
        <mxCell id="wYAOK6lgLk5Qr3I9pqYo-106" value="" style="sketch=0;pointerEvents=1;shadow=0;dashed=0;html=1;strokeColor=none;fillColor=#666666;labelPosition=center;verticalLabelPosition=bottom;verticalAlign=top;outlineConnect=0;align=center;shape=mxgraph.office.concepts.home;" vertex="1" parent="1">
          <mxGeometry x="1231.5" y="509.5" width="20" height="20" as="geometry" />
        </mxCell>
        <mxCell id="wYAOK6lgLk5Qr3I9pqYo-107" value="" style="sketch=0;pointerEvents=1;shadow=0;dashed=0;html=1;strokeColor=none;fillColor=#505050;labelPosition=center;verticalLabelPosition=bottom;verticalAlign=top;outlineConnect=0;align=center;shape=mxgraph.office.concepts.clock;labelBackgroundColor=#6d3131;" vertex="1" parent="1">
          <mxGeometry x="1476.5" y="507" width="20" height="20.5" as="geometry" />
        </mxCell>
        <mxCell id="wYAOK6lgLk5Qr3I9pqYo-108" value="" style="rounded=1;whiteSpace=wrap;html=1;fillColor=#E6E6E6;" vertex="1" parent="1">
          <mxGeometry x="1346.5" y="502.25" width="90" height="35" as="geometry" />
        </mxCell>
        <mxCell id="wYAOK6lgLk5Qr3I9pqYo-109" value="&lt;font size=&quot;1&quot;&gt;&lt;b&gt;Чеки&lt;/b&gt;&lt;/font&gt;" style="text;html=1;align=center;verticalAlign=middle;resizable=0;points=[];autosize=1;strokeColor=none;fillColor=none;" vertex="1" parent="1">
          <mxGeometry x="1376.5" y="502.25" width="50" height="30" as="geometry" />
        </mxCell>
        <mxCell id="wYAOK6lgLk5Qr3I9pqYo-110" value="" style="shape=image;html=1;verticalAlign=top;verticalLabelPosition=bottom;labelBackgroundColor=#ffffff;imageAspect=0;aspect=fixed;image=https://cdn0.iconfinder.com/data/icons/business-startup-10/50/29-128.png" vertex="1" parent="1">
          <mxGeometry x="1356.5" y="508.5" width="17.5" height="17.5" as="geometry" />
        </mxCell>
        <mxCell id="wYAOK6lgLk5Qr3I9pqYo-111" value="&lt;b&gt;&lt;font style=&quot;font-size: 10px;&quot;&gt;История&lt;/font&gt;&lt;/b&gt;" style="text;html=1;align=center;verticalAlign=middle;resizable=0;points=[];autosize=1;strokeColor=none;fillColor=none;labelBackgroundColor=#c31818;labelBorderColor=#FF3333;" vertex="1" parent="1">
          <mxGeometry x="1491.5" y="502.25" width="70" height="30" as="geometry" />
        </mxCell>
        <mxCell id="wYAOK6lgLk5Qr3I9pqYo-112" value="" style="sketch=0;pointerEvents=1;shadow=0;dashed=0;html=1;strokeColor=#FFFFFF;fillColor=#d5e8d4;labelPosition=center;verticalLabelPosition=bottom;verticalAlign=top;outlineConnect=0;align=center;shape=mxgraph.office.concepts.download;" vertex="1" parent="1">
          <mxGeometry x="1522" y="166" width="21" height="23" as="geometry" />
        </mxCell>
        <mxCell id="wYAOK6lgLk5Qr3I9pqYo-113" value="" style="sketch=0;pointerEvents=1;shadow=0;dashed=0;html=1;strokeColor=none;fillColor=#505050;labelPosition=center;verticalLabelPosition=bottom;verticalAlign=top;outlineConnect=0;align=center;shape=mxgraph.office.concepts.download;" vertex="1" parent="1">
          <mxGeometry x="1522" y="221" width="21" height="23" as="geometry" />
        </mxCell>
        <mxCell id="wYAOK6lgLk5Qr3I9pqYo-114" value="" style="sketch=0;pointerEvents=1;shadow=0;dashed=0;html=1;strokeColor=none;fillColor=#505050;labelPosition=center;verticalLabelPosition=bottom;verticalAlign=top;outlineConnect=0;align=center;shape=mxgraph.office.concepts.download;" vertex="1" parent="1">
          <mxGeometry x="1522" y="321" width="21" height="23" as="geometry" />
        </mxCell>
        <mxCell id="wYAOK6lgLk5Qr3I9pqYo-115" value="" style="sketch=0;pointerEvents=1;shadow=0;dashed=0;html=1;strokeColor=none;fillColor=#505050;labelPosition=center;verticalLabelPosition=bottom;verticalAlign=top;outlineConnect=0;align=center;shape=mxgraph.office.concepts.download;" vertex="1" parent="1">
          <mxGeometry x="1522" y="420" width="21" height="23" as="geometry" />
        </mxCell>
        <mxCell id="wYAOK6lgLk5Qr3I9pqYo-116" value="Перевод на карту" style="text;html=1;align=center;verticalAlign=middle;whiteSpace=wrap;rounded=0;" vertex="1" parent="1">
          <mxGeometry x="1233" y="162.5" width="113.5" height="30" as="geometry" />
        </mxCell>
        <mxCell id="wYAOK6lgLk5Qr3I9pqYo-117" value="Продукты &quot;Ромашка&quot;" style="text;html=1;align=center;verticalAlign=middle;whiteSpace=wrap;rounded=0;" vertex="1" parent="1">
          <mxGeometry x="1236.5" y="317.5" width="123.5" height="30" as="geometry" />
        </mxCell>
        <mxCell id="wYAOK6lgLk5Qr3I9pqYo-118" value="Поступление заработной платы" style="text;html=1;align=center;verticalAlign=middle;whiteSpace=wrap;rounded=0;" vertex="1" parent="1">
          <mxGeometry x="1206.5" y="410" width="203.5" height="30" as="geometry" />
        </mxCell>
        <mxCell id="wYAOK6lgLk5Qr3I9pqYo-119" value="- 100 руб.&amp;nbsp;" style="text;html=1;align=center;verticalAlign=middle;whiteSpace=wrap;rounded=0;" vertex="1" parent="1">
          <mxGeometry x="1411.5" y="162.5" width="60" height="30" as="geometry" />
        </mxCell>
        <mxCell id="wYAOK6lgLk5Qr3I9pqYo-120" value="Перевод на карту" style="text;html=1;align=center;verticalAlign=middle;whiteSpace=wrap;rounded=0;" vertex="1" parent="1">
          <mxGeometry x="1233" y="214" width="113.5" height="30" as="geometry" />
        </mxCell>
        <mxCell id="wYAOK6lgLk5Qr3I9pqYo-121" value="- 200 руб.&amp;nbsp;" style="text;html=1;align=center;verticalAlign=middle;whiteSpace=wrap;rounded=0;" vertex="1" parent="1">
          <mxGeometry x="1411.5" y="214" width="60" height="30" as="geometry" />
        </mxCell>
        <mxCell id="wYAOK6lgLk5Qr3I9pqYo-122" value="- 500 руб.&amp;nbsp;" style="text;html=1;align=center;verticalAlign=middle;whiteSpace=wrap;rounded=0;" vertex="1" parent="1">
          <mxGeometry x="1411.5" y="314" width="60" height="30" as="geometry" />
        </mxCell>
        <mxCell id="wYAOK6lgLk5Qr3I9pqYo-123" value="+ 5&amp;nbsp;&lt;span style=&quot;background-color: initial;&quot;&gt;000 руб.&amp;nbsp;&lt;/span&gt;" style="text;html=1;align=center;verticalAlign=middle;whiteSpace=wrap;rounded=0;" vertex="1" parent="1">
          <mxGeometry x="1410" y="412.1" width="80" height="30" as="geometry" />
        </mxCell>
        <mxCell id="wYAOK6lgLk5Qr3I9pqYo-164" value="" style="edgeStyle=orthogonalEdgeStyle;rounded=0;orthogonalLoop=1;jettySize=auto;html=1;" edge="1" parent="1" source="wYAOK6lgLk5Qr3I9pqYo-124" target="wYAOK6lgLk5Qr3I9pqYo-163">
          <mxGeometry relative="1" as="geometry" />
        </mxCell>
        <mxCell id="wYAOK6lgLk5Qr3I9pqYo-124" value="Загружаем документы по операции&lt;br&gt;Подождите, это может занять некоторое время" style="shape=parallelogram;perimeter=parallelogramPerimeter;whiteSpace=wrap;html=1;fixedSize=1;fillColor=#f8cecc;strokeColor=#b85450;" vertex="1" parent="1">
          <mxGeometry x="1206.5" y="214" width="380" height="130" as="geometry" />
        </mxCell>
        <mxCell id="wYAOK6lgLk5Qr3I9pqYo-125" value="тап на кнопку" style="text;html=1;align=center;verticalAlign=middle;resizable=0;points=[];autosize=1;strokeColor=none;fillColor=none;" vertex="1" parent="1">
          <mxGeometry x="1010" y="208" width="100" height="30" as="geometry" />
        </mxCell>
        <mxCell id="wYAOK6lgLk5Qr3I9pqYo-126" value="" style="rounded=0;whiteSpace=wrap;html=1;" vertex="1" parent="1">
          <mxGeometry x="1800" y="40" width="390" height="520" as="geometry" />
        </mxCell>
        <mxCell id="wYAOK6lgLk5Qr3I9pqYo-127" value="" style="rounded=1;whiteSpace=wrap;html=1;fillColor=#f8cecc;noLabel=1;labelBackgroundColor=#ec7474;strokeColor=#b85450;" vertex="1" parent="1">
          <mxGeometry x="2071.5" y="499.5" width="90" height="35" as="geometry" />
        </mxCell>
        <mxCell id="wYAOK6lgLk5Qr3I9pqYo-128" value="" style="rounded=1;whiteSpace=wrap;html=1;fillColor=#30B346;strokeColor=#82b366;" vertex="1" parent="1">
          <mxGeometry x="2115" y="160" width="35" height="35" as="geometry" />
        </mxCell>
        <mxCell id="wYAOK6lgLk5Qr3I9pqYo-129" value="" style="html=1;verticalLabelPosition=bottom;align=center;labelBackgroundColor=#ffffff;verticalAlign=top;strokeWidth=2;strokeColor=#0080F0;shadow=0;dashed=0;shape=mxgraph.ios7.icons.user;" vertex="1" parent="1">
          <mxGeometry x="2140" y="53.75" width="30" height="30" as="geometry" />
        </mxCell>
        <mxCell id="wYAOK6lgLk5Qr3I9pqYo-130" value="&lt;b&gt;Поиск&lt;/b&gt;" style="rounded=1;whiteSpace=wrap;html=1;" vertex="1" parent="1">
          <mxGeometry x="1830" y="53.75" width="290" height="30" as="geometry" />
        </mxCell>
        <mxCell id="wYAOK6lgLk5Qr3I9pqYo-131" value="" style="shape=image;html=1;verticalAlign=top;verticalLabelPosition=bottom;labelBackgroundColor=#ffffff;imageAspect=0;aspect=fixed;image=https://cdn4.iconfinder.com/data/icons/evil-icons-user-interface/64/magnifier-128.png" vertex="1" parent="1">
          <mxGeometry x="2085" y="53.75" width="30" height="30" as="geometry" />
        </mxCell>
        <mxCell id="wYAOK6lgLk5Qr3I9pqYo-132" value="&lt;h1 style=&quot;margin-top: 0px;&quot;&gt;&lt;font style=&quot;font-size: 15px;&quot;&gt;12 октября, 2023&lt;/font&gt;&lt;/h1&gt;" style="text;html=1;whiteSpace=wrap;overflow=hidden;rounded=0;" vertex="1" parent="1">
          <mxGeometry x="1821.5" y="117" width="270" height="50" as="geometry" />
        </mxCell>
        <mxCell id="wYAOK6lgLk5Qr3I9pqYo-133" value="&lt;h1 style=&quot;margin-top: 0px;&quot;&gt;&lt;font style=&quot;font-size: 15px;&quot;&gt;8 октября, 2023&lt;/font&gt;&lt;/h1&gt;" style="text;html=1;whiteSpace=wrap;overflow=hidden;rounded=0;" vertex="1" parent="1">
          <mxGeometry x="1822.5" y="265" width="270" height="50" as="geometry" />
        </mxCell>
        <mxCell id="wYAOK6lgLk5Qr3I9pqYo-134" value="&lt;h1 style=&quot;margin-top: 0px;&quot;&gt;&lt;font style=&quot;font-size: 15px;&quot;&gt;7 октября, 2023&lt;/font&gt;&lt;/h1&gt;" style="text;html=1;whiteSpace=wrap;overflow=hidden;rounded=0;" vertex="1" parent="1">
          <mxGeometry x="1822.5" y="362.1" width="270" height="50" as="geometry" />
        </mxCell>
        <mxCell id="wYAOK6lgLk5Qr3I9pqYo-135" value="" style="rounded=1;whiteSpace=wrap;html=1;fillColor=#E6E6E6;" vertex="1" parent="1">
          <mxGeometry x="2115" y="412.1" width="35" height="35" as="geometry" />
        </mxCell>
        <mxCell id="wYAOK6lgLk5Qr3I9pqYo-136" value="" style="rounded=1;whiteSpace=wrap;html=1;fillColor=#E6E6E6;" vertex="1" parent="1">
          <mxGeometry x="2115" y="315" width="35" height="35" as="geometry" />
        </mxCell>
        <mxCell id="wYAOK6lgLk5Qr3I9pqYo-137" value="" style="rounded=1;whiteSpace=wrap;html=1;fillColor=#E6E6E6;" vertex="1" parent="1">
          <mxGeometry x="2115" y="215" width="35" height="35" as="geometry" />
        </mxCell>
        <mxCell id="wYAOK6lgLk5Qr3I9pqYo-138" value="" style="rounded=1;whiteSpace=wrap;html=1;fillColor=#E6E6E6;" vertex="1" parent="1">
          <mxGeometry x="1821.5" y="502" width="90" height="35" as="geometry" />
        </mxCell>
        <mxCell id="wYAOK6lgLk5Qr3I9pqYo-139" value="&lt;b&gt;&lt;font style=&quot;font-size: 9px;&quot;&gt;Главная&lt;/font&gt;&lt;/b&gt;" style="text;html=1;align=center;verticalAlign=middle;resizable=0;points=[];autosize=1;strokeColor=none;fillColor=none;" vertex="1" parent="1">
          <mxGeometry x="1846.5" y="502.25" width="60" height="30" as="geometry" />
        </mxCell>
        <mxCell id="wYAOK6lgLk5Qr3I9pqYo-140" value="" style="sketch=0;pointerEvents=1;shadow=0;dashed=0;html=1;strokeColor=none;fillColor=#666666;labelPosition=center;verticalLabelPosition=bottom;verticalAlign=top;outlineConnect=0;align=center;shape=mxgraph.office.concepts.home;" vertex="1" parent="1">
          <mxGeometry x="1831.5" y="509.5" width="20" height="20" as="geometry" />
        </mxCell>
        <mxCell id="wYAOK6lgLk5Qr3I9pqYo-141" value="" style="sketch=0;pointerEvents=1;shadow=0;dashed=0;html=1;strokeColor=none;fillColor=#505050;labelPosition=center;verticalLabelPosition=bottom;verticalAlign=top;outlineConnect=0;align=center;shape=mxgraph.office.concepts.clock;labelBackgroundColor=#6d3131;" vertex="1" parent="1">
          <mxGeometry x="2076.5" y="507" width="20" height="20.5" as="geometry" />
        </mxCell>
        <mxCell id="wYAOK6lgLk5Qr3I9pqYo-142" value="" style="rounded=1;whiteSpace=wrap;html=1;fillColor=#E6E6E6;" vertex="1" parent="1">
          <mxGeometry x="1946.5" y="502.25" width="90" height="35" as="geometry" />
        </mxCell>
        <mxCell id="wYAOK6lgLk5Qr3I9pqYo-143" value="&lt;font size=&quot;1&quot;&gt;&lt;b&gt;Чеки&lt;/b&gt;&lt;/font&gt;" style="text;html=1;align=center;verticalAlign=middle;resizable=0;points=[];autosize=1;strokeColor=none;fillColor=none;" vertex="1" parent="1">
          <mxGeometry x="1976.5" y="502.25" width="50" height="30" as="geometry" />
        </mxCell>
        <mxCell id="wYAOK6lgLk5Qr3I9pqYo-144" value="" style="shape=image;html=1;verticalAlign=top;verticalLabelPosition=bottom;labelBackgroundColor=#ffffff;imageAspect=0;aspect=fixed;image=https://cdn0.iconfinder.com/data/icons/business-startup-10/50/29-128.png" vertex="1" parent="1">
          <mxGeometry x="1956.5" y="508.5" width="17.5" height="17.5" as="geometry" />
        </mxCell>
        <mxCell id="wYAOK6lgLk5Qr3I9pqYo-145" value="&lt;b&gt;&lt;font style=&quot;font-size: 10px;&quot;&gt;История&lt;/font&gt;&lt;/b&gt;" style="text;html=1;align=center;verticalAlign=middle;resizable=0;points=[];autosize=1;strokeColor=none;fillColor=none;labelBackgroundColor=#c31818;labelBorderColor=#FF3333;" vertex="1" parent="1">
          <mxGeometry x="2091.5" y="502.25" width="70" height="30" as="geometry" />
        </mxCell>
        <mxCell id="wYAOK6lgLk5Qr3I9pqYo-146" value="" style="sketch=0;pointerEvents=1;shadow=0;dashed=0;html=1;strokeColor=#FFFFFF;fillColor=#d5e8d4;labelPosition=center;verticalLabelPosition=bottom;verticalAlign=top;outlineConnect=0;align=center;shape=mxgraph.office.concepts.download;" vertex="1" parent="1">
          <mxGeometry x="2122" y="166" width="21" height="23" as="geometry" />
        </mxCell>
        <mxCell id="wYAOK6lgLk5Qr3I9pqYo-147" value="" style="sketch=0;pointerEvents=1;shadow=0;dashed=0;html=1;strokeColor=none;fillColor=#505050;labelPosition=center;verticalLabelPosition=bottom;verticalAlign=top;outlineConnect=0;align=center;shape=mxgraph.office.concepts.download;" vertex="1" parent="1">
          <mxGeometry x="2122" y="221" width="21" height="23" as="geometry" />
        </mxCell>
        <mxCell id="wYAOK6lgLk5Qr3I9pqYo-148" value="" style="sketch=0;pointerEvents=1;shadow=0;dashed=0;html=1;strokeColor=none;fillColor=#505050;labelPosition=center;verticalLabelPosition=bottom;verticalAlign=top;outlineConnect=0;align=center;shape=mxgraph.office.concepts.download;" vertex="1" parent="1">
          <mxGeometry x="2122" y="321" width="21" height="23" as="geometry" />
        </mxCell>
        <mxCell id="wYAOK6lgLk5Qr3I9pqYo-149" value="" style="sketch=0;pointerEvents=1;shadow=0;dashed=0;html=1;strokeColor=none;fillColor=#505050;labelPosition=center;verticalLabelPosition=bottom;verticalAlign=top;outlineConnect=0;align=center;shape=mxgraph.office.concepts.download;" vertex="1" parent="1">
          <mxGeometry x="2122" y="420" width="21" height="23" as="geometry" />
        </mxCell>
        <mxCell id="wYAOK6lgLk5Qr3I9pqYo-150" value="Перевод на карту" style="text;html=1;align=center;verticalAlign=middle;whiteSpace=wrap;rounded=0;" vertex="1" parent="1">
          <mxGeometry x="1833" y="162.5" width="113.5" height="30" as="geometry" />
        </mxCell>
        <mxCell id="wYAOK6lgLk5Qr3I9pqYo-151" value="Продукты &quot;Ромашка&quot;" style="text;html=1;align=center;verticalAlign=middle;whiteSpace=wrap;rounded=0;" vertex="1" parent="1">
          <mxGeometry x="1836.5" y="317.5" width="123.5" height="30" as="geometry" />
        </mxCell>
        <mxCell id="wYAOK6lgLk5Qr3I9pqYo-152" value="Поступление заработной платы" style="text;html=1;align=center;verticalAlign=middle;whiteSpace=wrap;rounded=0;" vertex="1" parent="1">
          <mxGeometry x="1806.5" y="410" width="203.5" height="30" as="geometry" />
        </mxCell>
        <mxCell id="wYAOK6lgLk5Qr3I9pqYo-153" value="- 100 руб.&amp;nbsp;" style="text;html=1;align=center;verticalAlign=middle;whiteSpace=wrap;rounded=0;" vertex="1" parent="1">
          <mxGeometry x="2011.5" y="162.5" width="60" height="30" as="geometry" />
        </mxCell>
        <mxCell id="wYAOK6lgLk5Qr3I9pqYo-154" value="Перевод на карту" style="text;html=1;align=center;verticalAlign=middle;whiteSpace=wrap;rounded=0;" vertex="1" parent="1">
          <mxGeometry x="1833" y="214" width="113.5" height="30" as="geometry" />
        </mxCell>
        <mxCell id="wYAOK6lgLk5Qr3I9pqYo-155" value="- 200 руб.&amp;nbsp;" style="text;html=1;align=center;verticalAlign=middle;whiteSpace=wrap;rounded=0;" vertex="1" parent="1">
          <mxGeometry x="2011.5" y="214" width="60" height="30" as="geometry" />
        </mxCell>
        <mxCell id="wYAOK6lgLk5Qr3I9pqYo-156" value="- 500 руб.&amp;nbsp;" style="text;html=1;align=center;verticalAlign=middle;whiteSpace=wrap;rounded=0;" vertex="1" parent="1">
          <mxGeometry x="2011.5" y="314" width="60" height="30" as="geometry" />
        </mxCell>
        <mxCell id="wYAOK6lgLk5Qr3I9pqYo-157" value="+ 5&amp;nbsp;&lt;span style=&quot;background-color: initial;&quot;&gt;000 руб.&amp;nbsp;&lt;/span&gt;" style="text;html=1;align=center;verticalAlign=middle;whiteSpace=wrap;rounded=0;" vertex="1" parent="1">
          <mxGeometry x="2010" y="412.1" width="80" height="30" as="geometry" />
        </mxCell>
        <mxCell id="wYAOK6lgLk5Qr3I9pqYo-159" value="" style="shape=note;whiteSpace=wrap;html=1;backgroundOutline=1;darkOpacity=0.05;fillColor=#dae8fc;strokeColor=#6c8ebf;" vertex="1" parent="1">
          <mxGeometry x="1812.25" y="105.25" width="358.5" height="432" as="geometry" />
        </mxCell>
        <mxCell id="wYAOK6lgLk5Qr3I9pqYo-161" value="&lt;h1 style=&quot;margin-top: 0px;&quot;&gt;Квитанция&lt;br&gt;Перевод на карту&lt;/h1&gt;&lt;div&gt;&lt;br&gt;&lt;/div&gt;&lt;h1 style=&quot;margin-top: 0px;&quot;&gt;12 октября&lt;br&gt;&lt;br&gt;200 рублей&lt;/h1&gt;" style="text;html=1;whiteSpace=wrap;overflow=hidden;rounded=0;" vertex="1" parent="1">
          <mxGeometry x="1891.5" y="166" width="258.5" height="334" as="geometry" />
        </mxCell>
        <mxCell id="wYAOK6lgLk5Qr3I9pqYo-163" value="" style="shape=singleArrow;whiteSpace=wrap;html=1;arrowWidth=0.4;arrowSize=0.4;fillColor=#f8cecc;strokeColor=#b85450;" vertex="1" parent="1">
          <mxGeometry x="1610" y="249" width="180" height="60" as="geometry" />
        </mxCell>
        <mxCell id="wYAOK6lgLk5Qr3I9pqYo-166" value="" style="verticalLabelPosition=bottom;verticalAlign=top;html=1;shape=mxgraph.basic.x;direction=south;fillColor=#f8cecc;strokeColor=#b85450;" vertex="1" parent="1">
          <mxGeometry x="2096.5" y="107" width="38" height="43" as="geometry" />
        </mxCell>
        <mxCell id="wYAOK6lgLk5Qr3I9pqYo-171" style="edgeStyle=orthogonalEdgeStyle;rounded=0;orthogonalLoop=1;jettySize=auto;html=1;entryX=0.5;entryY=0;entryDx=0;entryDy=0;exitX=0.339;exitY=0.092;exitDx=0;exitDy=0;exitPerimeter=0;" edge="1" parent="1">
          <mxGeometry relative="1" as="geometry">
            <mxPoint x="2272.7299999999996" y="26.50999999999999" as="sourcePoint" />
            <mxPoint x="780.27" y="53.75" as="targetPoint" />
          </mxGeometry>
        </mxCell>
        <mxCell id="wYAOK6lgLk5Qr3I9pqYo-170" value="&lt;span style=&quot;font-size: 14px;&quot;&gt;закрыть документ&lt;/span&gt;" style="text;html=1;align=center;verticalAlign=middle;resizable=0;points=[];autosize=1;strokeColor=none;fillColor=none;" vertex="1" parent="1">
          <mxGeometry x="2240" y="10" width="140" height="30" as="geometry" />
        </mxCell>
        <mxCell id="wYAOK6lgLk5Qr3I9pqYo-176" style="edgeStyle=orthogonalEdgeStyle;rounded=0;orthogonalLoop=1;jettySize=auto;html=1;entryX=0.529;entryY=0.998;entryDx=0;entryDy=0;entryPerimeter=0;" edge="1" parent="1" source="wYAOK6lgLk5Qr3I9pqYo-166" target="wYAOK6lgLk5Qr3I9pqYo-170">
          <mxGeometry relative="1" as="geometry" />
        </mxCell>
        <mxCell id="wYAOK6lgLk5Qr3I9pqYo-178" value="&lt;div&gt;&lt;span style=&quot;font-size: 14px;&quot;&gt;Тап по кнопке - переход на экран со скаченными чеками&lt;/span&gt;&lt;/div&gt;" style="text;html=1;align=center;verticalAlign=middle;resizable=0;points=[];autosize=1;strokeColor=none;fillColor=none;" vertex="1" parent="1">
          <mxGeometry x="50" y="600" width="390" height="30" as="geometry" />
        </mxCell>
        <mxCell id="wYAOK6lgLk5Qr3I9pqYo-180" value="" style="rounded=0;whiteSpace=wrap;html=1;" vertex="1" parent="1">
          <mxGeometry x="-510" y="40" width="390" height="520" as="geometry" />
        </mxCell>
        <mxCell id="wYAOK6lgLk5Qr3I9pqYo-181" value="" style="rounded=1;whiteSpace=wrap;html=1;noLabel=1;labelBackgroundColor=#ec7474;" vertex="1" parent="1">
          <mxGeometry x="-238.5" y="499.5" width="90" height="35" as="geometry" />
        </mxCell>
        <mxCell id="wYAOK6lgLk5Qr3I9pqYo-182" value="" style="rounded=1;whiteSpace=wrap;html=1;fillColor=#30B346;strokeColor=#82b366;" vertex="1" parent="1">
          <mxGeometry x="-195" y="160" width="35" height="35" as="geometry" />
        </mxCell>
        <mxCell id="wYAOK6lgLk5Qr3I9pqYo-183" value="" style="html=1;verticalLabelPosition=bottom;align=center;labelBackgroundColor=#ffffff;verticalAlign=top;strokeWidth=2;strokeColor=#0080F0;shadow=0;dashed=0;shape=mxgraph.ios7.icons.user;" vertex="1" parent="1">
          <mxGeometry x="-170" y="53.75" width="30" height="30" as="geometry" />
        </mxCell>
        <mxCell id="wYAOK6lgLk5Qr3I9pqYo-184" value="&lt;b&gt;Поиск&lt;/b&gt;" style="rounded=1;whiteSpace=wrap;html=1;" vertex="1" parent="1">
          <mxGeometry x="-480" y="53.75" width="290" height="30" as="geometry" />
        </mxCell>
        <mxCell id="wYAOK6lgLk5Qr3I9pqYo-185" value="" style="shape=image;html=1;verticalAlign=top;verticalLabelPosition=bottom;labelBackgroundColor=#ffffff;imageAspect=0;aspect=fixed;image=https://cdn4.iconfinder.com/data/icons/evil-icons-user-interface/64/magnifier-128.png" vertex="1" parent="1">
          <mxGeometry x="-225" y="53.75" width="30" height="30" as="geometry" />
        </mxCell>
        <mxCell id="wYAOK6lgLk5Qr3I9pqYo-186" value="&lt;h1 style=&quot;margin-top: 0px;&quot;&gt;&lt;font style=&quot;font-size: 15px;&quot;&gt;12 октября, 2023&lt;/font&gt;&lt;/h1&gt;" style="text;html=1;whiteSpace=wrap;overflow=hidden;rounded=0;" vertex="1" parent="1">
          <mxGeometry x="-488.5" y="117" width="270" height="50" as="geometry" />
        </mxCell>
        <mxCell id="wYAOK6lgLk5Qr3I9pqYo-192" value="" style="rounded=1;whiteSpace=wrap;html=1;" vertex="1" parent="1">
          <mxGeometry x="-488.5" y="502" width="90" height="35" as="geometry" />
        </mxCell>
        <mxCell id="wYAOK6lgLk5Qr3I9pqYo-193" value="&lt;b&gt;&lt;font style=&quot;font-size: 9px;&quot;&gt;Главная&lt;/font&gt;&lt;/b&gt;" style="text;html=1;align=center;verticalAlign=middle;resizable=0;points=[];autosize=1;strokeColor=none;fillColor=none;" vertex="1" parent="1">
          <mxGeometry x="-463.5" y="502.25" width="60" height="30" as="geometry" />
        </mxCell>
        <mxCell id="wYAOK6lgLk5Qr3I9pqYo-194" value="" style="sketch=0;pointerEvents=1;shadow=0;dashed=0;html=1;strokeColor=none;fillColor=#666666;labelPosition=center;verticalLabelPosition=bottom;verticalAlign=top;outlineConnect=0;align=center;shape=mxgraph.office.concepts.home;" vertex="1" parent="1">
          <mxGeometry x="-478.5" y="509.5" width="20" height="20" as="geometry" />
        </mxCell>
        <mxCell id="wYAOK6lgLk5Qr3I9pqYo-195" value="" style="sketch=0;pointerEvents=1;shadow=0;dashed=0;html=1;strokeColor=none;fillColor=#505050;labelPosition=center;verticalLabelPosition=bottom;verticalAlign=top;outlineConnect=0;align=center;shape=mxgraph.office.concepts.clock;labelBackgroundColor=#6d3131;" vertex="1" parent="1">
          <mxGeometry x="-233.5" y="507" width="20" height="20.5" as="geometry" />
        </mxCell>
        <mxCell id="wYAOK6lgLk5Qr3I9pqYo-196" value="" style="rounded=1;whiteSpace=wrap;html=1;fillColor=#f8cecc;strokeColor=#b85450;" vertex="1" parent="1">
          <mxGeometry x="-363.5" y="502.25" width="90" height="35" as="geometry" />
        </mxCell>
        <mxCell id="wYAOK6lgLk5Qr3I9pqYo-220" style="edgeStyle=orthogonalEdgeStyle;rounded=0;orthogonalLoop=1;jettySize=auto;html=1;" edge="1" parent="1" source="wYAOK6lgLk5Qr3I9pqYo-197" target="wYAOK6lgLk5Qr3I9pqYo-219">
          <mxGeometry relative="1" as="geometry" />
        </mxCell>
        <mxCell id="wYAOK6lgLk5Qr3I9pqYo-197" value="&lt;font size=&quot;1&quot;&gt;&lt;b&gt;Чеки&lt;/b&gt;&lt;/font&gt;" style="text;html=1;align=center;verticalAlign=middle;resizable=0;points=[];autosize=1;strokeColor=none;fillColor=none;labelBackgroundColor=#FF6666;" vertex="1" parent="1">
          <mxGeometry x="-333.5" y="502.25" width="50" height="30" as="geometry" />
        </mxCell>
        <mxCell id="wYAOK6lgLk5Qr3I9pqYo-198" value="" style="shape=image;html=1;verticalAlign=top;verticalLabelPosition=bottom;labelBackgroundColor=#ffffff;imageAspect=0;aspect=fixed;image=https://cdn0.iconfinder.com/data/icons/business-startup-10/50/29-128.png" vertex="1" parent="1">
          <mxGeometry x="-353.5" y="508.5" width="17.5" height="17.5" as="geometry" />
        </mxCell>
        <mxCell id="wYAOK6lgLk5Qr3I9pqYo-199" value="&lt;b&gt;&lt;font style=&quot;font-size: 10px;&quot;&gt;История&lt;/font&gt;&lt;/b&gt;" style="text;html=1;align=center;verticalAlign=middle;resizable=0;points=[];autosize=1;labelBackgroundColor=none;labelBorderColor=none;" vertex="1" parent="1">
          <mxGeometry x="-218.5" y="502.25" width="70" height="30" as="geometry" />
        </mxCell>
        <mxCell id="wYAOK6lgLk5Qr3I9pqYo-200" value="" style="sketch=0;pointerEvents=1;shadow=0;dashed=0;html=1;strokeColor=#FFFFFF;fillColor=#d5e8d4;labelPosition=center;verticalLabelPosition=bottom;verticalAlign=top;outlineConnect=0;align=center;shape=mxgraph.office.concepts.download;" vertex="1" parent="1">
          <mxGeometry x="-188" y="166" width="21" height="23" as="geometry" />
        </mxCell>
        <mxCell id="wYAOK6lgLk5Qr3I9pqYo-204" value="Перевод на карту" style="text;html=1;align=center;verticalAlign=middle;whiteSpace=wrap;rounded=0;" vertex="1" parent="1">
          <mxGeometry x="-477" y="162.5" width="113.5" height="30" as="geometry" />
        </mxCell>
        <mxCell id="wYAOK6lgLk5Qr3I9pqYo-207" value="100 руб.&amp;nbsp;" style="text;html=1;align=center;verticalAlign=middle;whiteSpace=wrap;rounded=0;" vertex="1" parent="1">
          <mxGeometry x="-298.5" y="162.5" width="60" height="30" as="geometry" />
        </mxCell>
        <mxCell id="wYAOK6lgLk5Qr3I9pqYo-212" value="Загруженные документы по операциям" style="text;html=1;align=center;verticalAlign=middle;whiteSpace=wrap;rounded=0;fillColor=#f8cecc;strokeColor=#b85450;" vertex="1" parent="1">
          <mxGeometry x="-480" y="90" width="310" height="30" as="geometry" />
        </mxCell>
        <mxCell id="wYAOK6lgLk5Qr3I9pqYo-214" value="Перевод на карту" style="text;html=1;align=center;verticalAlign=middle;whiteSpace=wrap;rounded=0;" vertex="1" parent="1">
          <mxGeometry x="-478.5" y="214" width="113.5" height="30" as="geometry" />
        </mxCell>
        <mxCell id="wYAOK6lgLk5Qr3I9pqYo-215" value="&amp;nbsp;200 руб.&amp;nbsp;" style="text;html=1;align=center;verticalAlign=middle;whiteSpace=wrap;rounded=0;" vertex="1" parent="1">
          <mxGeometry x="-300" y="214" width="60" height="30" as="geometry" />
        </mxCell>
        <mxCell id="wYAOK6lgLk5Qr3I9pqYo-217" value="" style="rounded=1;whiteSpace=wrap;html=1;fillColor=#30B346;strokeColor=#82b366;" vertex="1" parent="1">
          <mxGeometry x="-195" y="215" width="35" height="35" as="geometry" />
        </mxCell>
        <mxCell id="wYAOK6lgLk5Qr3I9pqYo-218" value="" style="sketch=0;pointerEvents=1;shadow=0;dashed=0;html=1;strokeColor=#FFFFFF;fillColor=#d5e8d4;labelPosition=center;verticalLabelPosition=bottom;verticalAlign=top;outlineConnect=0;align=center;shape=mxgraph.office.concepts.download;" vertex="1" parent="1">
          <mxGeometry x="-188" y="221" width="21" height="23" as="geometry" />
        </mxCell>
        <mxCell id="wYAOK6lgLk5Qr3I9pqYo-219" value="&lt;span style=&quot;font-size: 14px;&quot;&gt;Кнопка должна быть подсвечена&lt;br&gt;красным&lt;/span&gt;" style="text;html=1;align=center;verticalAlign=middle;resizable=0;points=[];autosize=1;strokeColor=none;fillColor=none;" vertex="1" parent="1">
          <mxGeometry x="-430" y="590" width="240" height="50" as="geometry" />
        </mxCell>
        <mxCell id="wYAOK6lgLk5Qr3I9pqYo-221" value="" style="whiteSpace=wrap;html=1;shape=mxgraph.basic.cloud_rect" vertex="1" parent="1">
          <mxGeometry x="80" y="130" width="310" height="330" as="geometry" />
        </mxCell>
        <mxCell id="wYAOK6lgLk5Qr3I9pqYo-231" value="Главный экран&lt;div&gt;&amp;nbsp;приложения&lt;/div&gt;" style="text;strokeColor=none;fillColor=none;html=1;fontSize=24;fontStyle=1;verticalAlign=middle;align=center;" vertex="1" parent="1">
          <mxGeometry x="185" y="238" width="100" height="40" as="geometry" />
        </mxCell>
        <mxCell id="wYAOK6lgLk5Qr3I9pqYo-233" value="Главная" style="text;strokeColor=none;fillColor=none;html=1;fontSize=24;fontStyle=1;verticalAlign=middle;align=center;" vertex="1" parent="1">
          <mxGeometry x="190" y="-20" width="100" height="40" as="geometry" />
        </mxCell>
        <mxCell id="wYAOK6lgLk5Qr3I9pqYo-234" value="История транзакций" style="text;strokeColor=none;fillColor=none;html=1;fontSize=24;fontStyle=1;verticalAlign=middle;align=center;" vertex="1" parent="1">
          <mxGeometry x="748.5" y="-20" width="100" height="40" as="geometry" />
        </mxCell>
        <mxCell id="wYAOK6lgLk5Qr3I9pqYo-235" value="Уведомление о загрузке чека" style="text;strokeColor=none;fillColor=none;html=1;fontSize=24;fontStyle=1;verticalAlign=middle;align=center;" vertex="1" parent="1">
          <mxGeometry x="1341.5" y="-20" width="100" height="40" as="geometry" />
        </mxCell>
        <mxCell id="wYAOK6lgLk5Qr3I9pqYo-236" value="Просмотр документа" style="text;strokeColor=none;fillColor=none;html=1;fontSize=24;fontStyle=1;verticalAlign=middle;align=center;" vertex="1" parent="1">
          <mxGeometry x="1956.5" y="-20" width="100" height="40" as="geometry" />
        </mxCell>
        <mxCell id="wYAOK6lgLk5Qr3I9pqYo-237" value="Чеки загруженные" style="text;strokeColor=none;fillColor=none;html=1;fontSize=24;fontStyle=1;verticalAlign=middle;align=center;" vertex="1" parent="1">
          <mxGeometry x="-353.5" y="-20" width="100" height="40" as="geometry" />
        </mxCell>
      </root>
    </mxGraphModel>
  </diagram>
</mxfile>
